<svg width="28" height="28" viewBox="0 0 28 28" fill="none" xmlns="http://www.w3.org/2000/svg">
<path fill-rule="evenodd" clip-rule="evenodd" d="M4.6665 0.666656C2.45737 0.666656 0.666504 2.45752 0.666504 4.66666V23.3333C0.666504 25.5425 2.45736 27.3333 4.6665 27.3333H23.3332C25.5423 27.3333 27.3332 25.5425 27.3332 23.3333V4.66666C27.3332 2.45752 25.5423 0.666656 23.3332 0.666656H4.6665ZM7.33317 20.6667H20.6665C21.4029 20.6667 21.9998 20.0697 21.9998 19.3333C21.9998 18.5969 21.4029 18 20.6665 18H7.33317C6.59679 18 5.99984 18.5969 5.99984 19.3333C5.99984 20.0697 6.59679 20.6667 7.33317 20.6667ZM20.6665 15.3333H7.33317C6.59679 15.3333 5.99984 14.7364 5.99984 14C5.99984 13.2636 6.59679 12.6667 7.33317 12.6667H20.6665C21.4029 12.6667 21.9998 13.2636 21.9998 14C21.9998 14.7364 21.4029 15.3333 20.6665 15.3333ZM7.33317 9.99999H20.6665C21.4029 9.99999 21.9998 9.40304 21.9998 8.66666C21.9998 7.93028 21.4029 7.33332 20.6665 7.33332H7.33317C6.59679 7.33332 5.99984 7.93028 5.99984 8.66666C5.99984 9.40304 6.59679 9.99999 7.33317 9.99999Z" fill="white"/>
</svg>
