<svg width="29" height="24" viewBox="0 0 29 24" fill="none" xmlns="http://www.w3.org/2000/svg">
<path d="M10.1779 5.10587L28.2291 19.518C28.6711 19.8709 28.9285 20.3717 28.9871 20.8944C29.0455 21.4156 28.9059 21.9595 28.554 22.4002L28.554 22.4003C28.2011 22.8423 27.7002 23.0997 27.1776 23.1583C26.6563 23.2167 26.1123 23.077 25.6716 22.7252L7.00753 7.82374L6.42627 7.35965L6.99809 6.88677C7.35396 6.5925 7.74049 6.29388 8.15822 5.98841C8.56104 5.69384 8.99743 5.39098 9.46752 5.07755L9.83532 4.83234L10.1779 5.10587L10.1779 5.10587Z" fill="white"/>
<path d="M1.58436 0.87055C1.93724 0.428691 2.43804 0.171301 2.9606 0.112762C3.48185 0.0543357 4.02576 0.194025 4.46648 0.545857L4.46654 0.545924L6.36213 2.05936L6.94283 2.52298L6.3692 2.99633C5.99641 3.30396 5.63887 3.6233 5.29691 3.95339C4.95487 4.28357 4.63544 4.61807 4.33882 4.9561L3.95858 5.38944L3.51041 5.03163L1.90905 3.75311C1.46704 3.40021 1.20965 2.89932 1.15106 2.37669C1.09264 1.85542 1.2323 1.31147 1.58416 0.870772L1.58436 0.870549L1.58436 0.87055Z" fill="white"/>
<path d="M9.13384 0.15773L13.0623 3.29425L12.6871 3.76628L13.064 3.29411C13.3248 3.50229 13.3674 3.88248 13.1592 4.14324C13.1023 4.21454 13.0325 4.26948 12.9558 4.30751C9.05151 6.65722 6.60685 8.40659 5.2198 10.5873C3.84184 12.7537 3.47032 15.4237 3.69355 19.6432L3.69513 19.6431C3.71275 19.9763 3.45692 20.2608 3.12371 20.2784C2.89073 20.2907 2.68162 20.1693 2.57086 19.9813C2.30196 19.6104 2.05715 19.2409 1.83618 18.8735C-0.0168 15.792 -0.432573 12.563 0.432016 9.50395C1.2881 6.47504 3.40208 3.62915 6.61903 1.2798C7.18889 0.863612 7.78834 0.465774 8.41623 0.0881405L8.41525 0.0864903C8.64974 -0.0545147 8.94156 -0.0177415 9.13383 0.15774L9.13384 0.15773Z" fill="white"/>
</svg>
