<svg width="26" height="26" viewBox="0 0 26 26" fill="none" xmlns="http://www.w3.org/2000/svg">
<path d="M12.9978 0C5.8193 0 0 5.8193 0 12.9978C0 20.1763 5.8193 25.9957 12.9978 25.9957C20.1763 25.9957 25.9957 20.1763 25.9957 12.9978C25.9957 5.8193 20.1763 0 12.9978 0ZM17.9565 6.61925L16.1588 6.62005C14.749 6.62005 14.4765 7.28995 14.4765 8.27287V10.4403H17.8382L17.8366 13.835H14.4767V22.5467H10.9703V13.835H8.03911V10.4403H10.9703V7.93672C10.9703 5.03132 12.7454 3.44898 15.337 3.44898L17.9568 3.45297V6.61925H17.9565Z" fill="white"/>
</svg>
