<svg width="33" height="33" viewBox="0 0 33 33" fill="none" xmlns="http://www.w3.org/2000/svg">
<path d="M8.51963 27.937C8.19134 28.2652 8.19138 28.7975 8.51963 29.1257L11.6898 32.2959C12.0181 32.6242 12.5503 32.6241 12.8786 32.2959L32.2957 12.8787C32.624 12.5504 32.624 12.0182 32.2957 11.6899L29.1256 8.51977C28.7973 8.19148 28.2651 8.19152 27.9368 8.51977C26.9536 9.50302 25.3537 9.50306 24.3704 8.51977C23.3871 7.53648 23.3871 5.93662 24.3704 4.95333C24.6986 4.62508 24.6987 4.09283 24.3704 3.76454L21.2002 0.594398C20.8719 0.266111 20.3397 0.266152 20.0114 0.594399L0.594259 20.0116C0.265972 20.3399 0.266011 20.8721 0.594258 21.2004L3.7644 24.3705C4.09268 24.6988 4.62494 24.6988 4.95319 24.3705C5.93644 23.3873 7.53634 23.3872 8.51963 24.3705C9.50292 25.3538 9.50292 26.9537 8.51963 27.937ZM4.41852 22.6471L2.37744 20.606L14.8599 8.12351L16.6431 9.90673C16.9714 10.235 17.5037 10.235 17.8319 9.90673C18.1602 9.57848 18.1602 9.04619 17.8319 8.71794L16.0487 6.93472L20.6058 2.37758L22.6469 4.41866C21.5682 6.04971 21.7464 8.27334 23.1816 9.70856C24.6168 11.1438 26.8405 11.322 28.4715 10.2432L30.5126 12.2843L25.9555 16.8414L24.1722 15.0582C23.844 14.7299 23.3117 14.7299 22.9835 15.0582C22.6552 15.3864 22.6552 15.9187 22.9835 16.247L24.7667 18.0302L12.2842 30.5127L10.2431 28.4716C11.3218 26.8405 11.1437 24.6169 9.70846 23.1817C8.27324 21.7465 6.04953 21.5683 4.41852 22.6471Z" fill="white"/>
<path d="M21.7948 13.8694C22.1231 13.5411 22.123 13.0088 21.7948 12.6806L20.2097 11.0955C19.8814 10.7672 19.3491 10.7672 19.0209 11.0955C18.6926 11.4237 18.6926 11.956 19.0209 12.2843L20.606 13.8694C20.9342 14.1976 21.4665 14.1976 21.7948 13.8694Z" fill="white"/>
</svg>
