<svg width="31" height="31" viewBox="0 0 31 31" fill="none" xmlns="http://www.w3.org/2000/svg">
<path d="M9.08203 11.9277C4.0742 11.9277 0 16.0019 0 21.0098C0 26.0176 4.0742 30.0918 9.08203 30.0918C14.0899 30.0918 18.1641 26.0176 18.1641 21.0098C18.1641 16.0019 14.0899 11.9277 9.08203 11.9277ZM9.08203 27.6699C5.40962 27.6699 2.42188 24.6822 2.42188 21.0098C2.42188 17.3374 5.40962 14.3496 9.08203 14.3496C12.7544 14.3496 15.7422 17.3374 15.7422 21.0098C15.7422 24.6822 12.7544 27.6699 9.08203 27.6699ZM9.08203 17.377C7.0789 17.377 5.44922 19.0066 5.44922 21.0098C5.44922 23.0129 7.0789 24.6426 9.08203 24.6426C11.0852 24.6426 12.7148 23.0129 12.7148 21.0098C12.7148 19.0066 11.0852 17.377 9.08203 17.377ZM9.08203 22.2207C8.41432 22.2207 7.87109 21.6775 7.87109 21.0098C7.87109 20.3421 8.41432 19.7988 9.08203 19.7988C9.74974 19.7988 10.293 20.3421 10.293 21.0098C10.293 21.6775 9.74974 22.2207 9.08203 22.2207ZM31 21.0098C31 26.0176 26.9258 30.0918 21.918 30.0918C20.8884 30.0918 19.8778 29.9206 18.9141 29.5829C18.2829 29.3617 17.9505 28.6708 18.1716 28.0397C18.3927 27.4085 19.0837 27.0762 19.7148 27.2973C20.4206 27.5445 21.1619 27.6699 21.918 27.6699C25.5904 27.6699 28.5781 24.6822 28.5781 21.0098C28.5781 17.3374 25.5904 14.3496 21.918 14.3496C21.1246 14.3496 20.3489 14.4874 19.6126 14.7591C18.9852 14.9906 18.2888 14.6697 18.0573 14.0422C17.8258 13.4148 18.1467 12.7185 18.7741 12.4869C19.7798 12.1159 20.8375 11.9277 21.918 11.9277C26.9258 11.9277 31 16.0019 31 21.0098ZM6.46271 9.08348C6.68419 6.85263 7.72239 4.78956 9.38598 3.27431C11.0612 1.74847 13.2326 0.908203 15.5 0.908203C17.7553 0.908203 19.9178 1.7406 21.5894 3.25197C23.2484 4.75214 24.2928 6.79832 24.53 9.01367C24.6012 9.67866 24.1199 10.2755 23.4548 10.3467C22.7903 10.4178 22.193 9.93647 22.1218 9.27154C21.7593 5.88437 18.9124 3.33008 15.5 3.33008C12.0611 3.33008 9.21197 5.90635 8.87278 9.32277C8.81078 9.94755 8.28408 10.4141 7.66923 10.4141C7.62915 10.4141 7.58882 10.4121 7.54814 10.4081C6.88261 10.3421 6.39666 9.74902 6.46271 9.08348ZM19.115 9.62841C19.181 10.2939 18.6951 10.887 18.0295 10.9531C17.9889 10.957 17.9485 10.959 17.9085 10.959C17.2935 10.959 16.7669 10.4925 16.7049 9.86769C16.6433 9.2472 16.1253 8.7793 15.5 8.7793C14.8902 8.7793 14.3736 9.23413 14.2985 9.83729C14.2158 10.5009 13.6111 10.9723 12.947 10.8891C12.2834 10.8064 11.8125 10.2013 11.8952 9.53771C12.1212 7.72463 13.671 6.35742 15.5 6.35742C17.3757 6.35742 18.9298 7.76362 19.115 9.62841ZM22.7742 21.8661C23.2464 21.3939 23.2464 20.6257 22.7742 20.1535C22.43 19.8092 21.9154 19.7047 21.4633 19.8873C20.8431 20.1378 20.1375 19.8381 19.887 19.2181C19.6365 18.5979 19.9362 17.8922 20.5563 17.6417C21.9112 17.0944 23.454 17.4081 24.4869 18.441C25.9033 19.8574 25.9033 22.1621 24.4869 23.5785C23.7914 24.274 22.8646 24.6434 21.9197 24.6434C21.4614 24.6434 20.9989 24.5565 20.5563 24.3777C19.9362 24.1273 19.6366 23.4215 19.887 22.8014C20.1375 22.1813 20.8434 21.8818 21.4633 22.1321C21.9154 22.3149 22.4299 22.2104 22.7742 21.8661Z" fill="white"/>
</svg>
