<svg width="30" height="30" viewBox="0 0 30 30" fill="none" xmlns="http://www.w3.org/2000/svg">
<path d="M28.6839 18.2875L25.9287 16.1313C25.9637 15.7987 25.9937 15.41 25.9937 14.9988C25.9937 14.5875 25.9649 14.1988 25.9287 13.8663L28.6864 11.7088C29.1985 11.3038 29.3384 10.585 29.0124 9.98631L26.1473 5.025C25.8413 4.46502 25.1706 4.1775 24.4899 4.42875L21.2389 5.73498C20.6157 5.28498 19.9624 4.905 19.2868 4.60125L18.7922 1.15002C18.711 0.495 18.1415 0 17.4683 0H11.7231C11.0499 0 10.4817 0.495 10.4017 1.14L9.90592 4.60377C9.25145 4.89879 8.60828 5.27379 7.95755 5.7375L4.69779 4.42752C4.08699 4.19127 3.35635 4.45623 3.05286 5.01375L0.184049 9.98127C-0.154398 10.5538 -0.0145348 11.2975 0.508796 11.7125L3.26397 13.8688C3.22024 14.29 3.19904 14.6563 3.19904 15.0001C3.19904 15.3438 3.22029 15.71 3.26397 16.1326L0.506279 18.29C-0.00581157 18.6963 -0.144445 19.415 0.181531 20.0125L3.04665 24.9738C3.35266 25.5325 4.01709 25.8225 4.70399 25.57L7.95504 24.2638C8.57702 24.7126 9.2302 25.0925 9.90592 25.3975L10.4005 28.8475C10.4816 29.505 11.0499 30 11.7244 30H17.4695C18.1428 30 18.7123 29.505 18.7922 28.86L19.288 25.3975C19.9425 25.1013 20.5844 24.7275 21.2364 24.2625L24.4961 25.5725C24.6535 25.6337 24.8171 25.665 24.9857 25.665C25.4703 25.665 25.9162 25.4 26.141 24.9875L29.0186 20C29.3384 19.415 29.1984 18.6963 28.6839 18.2875ZM14.5957 20C11.8405 20 9.59991 17.7575 9.59991 15C9.59991 12.2425 11.8405 10 14.5957 10C17.3509 10 19.5915 12.2425 19.5915 15C19.5915 17.7575 17.3509 20 14.5957 20Z" fill="white"/>
</svg>
