<svg width="32" height="27" viewBox="0 0 32 27" fill="none" xmlns="http://www.w3.org/2000/svg">
<path d="M31.9867 3.76623C30.832 4.27275 29.6017 4.60848 28.3189 4.7715C29.6385 3.98359 30.6457 2.74544 31.1193 1.25306C29.8889 1.98664 28.5304 2.5048 27.0827 2.79396C25.9144 1.54999 24.2493 0.779541 22.4328 0.779541C18.9086 0.779541 16.0713 3.64009 16.0713 7.14688C16.0713 7.65145 16.114 8.13662 16.2188 8.5985C10.9266 8.34039 6.24377 5.80394 3.09794 1.94006C2.54873 2.89293 2.22658 3.98359 2.22658 5.15769C2.22658 7.36229 3.36187 9.31655 5.05414 10.448C4.0314 10.4286 3.02808 10.1316 2.17806 9.66393C2.17806 9.68333 2.17806 9.70856 2.17806 9.73379C2.17806 12.8272 4.3846 15.3967 7.27814 15.9886C6.75998 16.1302 6.19525 16.1982 5.60917 16.1982C5.20163 16.1982 4.7902 16.1749 4.40401 16.0895C5.2288 18.6104 7.56924 20.4638 10.3522 20.5239C8.18638 22.2181 5.43645 23.2389 2.45946 23.2389C1.93742 23.2389 1.43673 23.2156 0.936035 23.1516C3.75583 24.97 7.09766 26.0082 10.7015 26.0082C22.4154 26.0082 28.8196 16.3049 28.8196 7.89404C28.8196 7.61264 28.8099 7.34095 28.7963 7.07119C30.0597 6.1746 31.1212 5.05484 31.9867 3.76623Z" fill="white"/>
</svg>
