<svg width="26" height="27" viewBox="0 0 26 27" fill="none" xmlns="http://www.w3.org/2000/svg">
<path d="M3.98641 22.597C8.9678 27.5784 17.0314 27.5792 22.0136 22.597C26.9951 17.6155 26.9959 9.552 22.0136 4.56977C17.0322 -0.411717 8.9686 -0.412463 3.98641 4.56977C-0.995124 9.55125 -0.995821 17.6147 3.98641 22.597ZM4.51919 6.38685C5.11477 6.91943 5.75185 7.39075 6.42336 7.79692C5.97952 9.3301 5.71656 11.0173 5.65441 12.771H1.90672C2.07617 10.4071 2.98446 8.18956 4.51919 6.38685ZM24.0933 12.771H20.3456C20.2835 11.0173 20.0205 9.3301 19.5767 7.79692C20.2482 7.39075 20.8853 6.91943 21.4808 6.38685C23.0156 8.18956 23.9238 10.4071 24.0933 12.771V12.771ZM21.4808 20.7799C20.8852 20.2473 20.2481 19.776 19.5766 19.3698C20.0205 17.8366 20.2834 16.1495 20.3456 14.3957H24.0933C23.9238 16.7596 23.0156 18.9771 21.4808 20.7799V20.7799ZM13.8123 19.2019C15.1371 19.2967 16.4145 19.623 17.5987 20.1613C16.91 21.9348 15.6403 24.062 13.8123 24.5891V19.2019ZM13.8123 17.5742V14.3956H18.7203C18.664 15.8792 18.4538 17.3038 18.1042 18.6073C16.7585 18.019 15.3111 17.6676 13.8123 17.5742V17.5742ZM13.8123 12.771V9.59246C15.3111 9.49905 16.7585 9.14772 18.1042 8.55941C18.4538 9.86288 18.664 11.2875 18.7203 12.771H13.8123ZM13.8123 7.96477V2.57761C15.6402 3.10476 16.9099 5.23168 17.5987 7.00542C16.4145 7.54372 15.1371 7.87002 13.8123 7.96477ZM12.1877 7.96477C10.8629 7.87002 9.58547 7.54372 8.40124 7.00542C9.09002 5.23183 10.3597 3.10476 12.1877 2.57761V7.96477ZM12.1877 9.59246V12.771H7.2797C7.33594 11.2875 7.54614 9.86288 7.89573 8.55941C9.2415 9.14772 10.6888 9.49905 12.1877 9.59246ZM12.1877 14.3956V17.5742C10.6888 17.6676 9.2415 18.019 7.89573 18.6073C7.54614 17.3038 7.33594 15.8792 7.2797 14.3956H12.1877ZM12.1877 19.2019V24.5891C10.3597 24.0619 9.08997 21.9348 8.40124 20.1612C9.58547 19.623 10.8629 19.2967 12.1877 19.2019ZM8.53899 23.7781C7.49916 23.3227 6.52906 22.7053 5.65943 21.9392C6.07337 21.5743 6.51015 21.2433 6.96624 20.9474C7.37127 21.9502 7.88867 22.9248 8.53899 23.7781V23.7781ZM19.0338 20.9474C19.4899 21.2433 19.9266 21.5743 20.3406 21.9392C19.471 22.7053 18.5009 23.3227 17.461 23.7781C18.1114 22.9247 18.6288 21.9501 19.0338 20.9474V20.9474ZM19.0337 6.2193C18.6288 5.2165 18.1113 4.24187 17.461 3.38862C18.5008 3.84396 19.4709 4.46138 20.3405 5.22745C19.9266 5.59242 19.4898 5.92335 19.0337 6.2193V6.2193ZM6.96624 6.2193C6.51015 5.92335 6.07337 5.59242 5.65943 5.2275C6.52906 4.46143 7.49916 3.84401 8.53899 3.38867C7.88872 4.24182 7.37127 5.21645 6.96624 6.2193ZM5.65436 14.3956C5.71651 16.1494 5.97947 17.8366 6.42331 19.3698C5.7518 19.7759 5.11476 20.2473 4.51914 20.7798C2.98441 18.9771 2.07617 16.7596 1.90667 14.3956H5.65436Z" fill="white"/>
</svg>
