<svg width="94" height="94" viewBox="0 0 94 94" fill="none" xmlns="http://www.w3.org/2000/svg">
<path fill-rule="evenodd" clip-rule="evenodd" d="M56.3188 21.2723C57.0348 20.6962 58.1521 21.2871 58.053 22.1894C56.5135 36.2072 60.8189 50.3377 69.9492 61.2362C70.5367 61.9375 69.9193 63.0575 68.9984 62.961C54.6861 61.4618 40.2612 65.6871 29.139 74.6374C28.423 75.2135 27.3057 74.6226 27.4048 73.7203C28.9446 59.7025 24.6393 45.5719 15.5092 34.6732C14.9217 33.9719 15.5392 32.852 16.4601 32.9484C30.7721 34.4475 45.1967 30.2224 56.3188 21.2723Z" fill="url(#paint0_radial)"/>
<path fill-rule="evenodd" clip-rule="evenodd" d="M67.8268 32.9413C67.4845 32.5073 67.8655 31.8163 68.4238 31.8585C73.5866 32.2496 78.7455 30.737 82.8399 27.6312C83.2827 27.2953 83.9718 27.6598 83.928 28.2067C83.5224 33.2632 85.0607 38.3176 88.226 42.3312C88.5683 42.7652 88.1874 43.4562 87.6291 43.4139C82.4663 43.0232 77.3074 44.5362 73.2131 47.6423C72.7703 47.9783 72.0811 47.6138 72.125 47.0668C72.5308 42.01 70.9925 36.9551 67.8268 32.9413Z" fill="url(#paint1_radial)"/>
<defs>
<radialGradient id="paint0_radial" cx="0" cy="0" r="1" gradientUnits="userSpaceOnUse" gradientTransform="translate(42.7291 47.955) rotate(118.867) scale(30.5781 30.8895)">
<stop stop-color="#3FFFFF"/>
<stop offset="0.869792" stop-color="#08C1CE"/>
</radialGradient>
<radialGradient id="paint1_radial" cx="0" cy="0" r="1" gradientUnits="userSpaceOnUse" gradientTransform="translate(78.0262 37.6366) rotate(118.867) scale(11.4748 11.5808)">
<stop stop-color="#3FFFFF"/>
<stop offset="0.869792" stop-color="#08C1CE"/>
</radialGradient>
</defs>
</svg>
