<svg width="1202" height="540" viewBox="0 0 1202 540" fill="none" xmlns="http://www.w3.org/2000/svg">
<g opacity="0.7" clip-path="url(#clip0)">
<g filter="url(#filter0_f)">
<path opacity="0.38" d="M619.088 532.967C619.088 532.807 619.152 532.655 619.264 532.542C619.377 532.429 619.53 532.366 619.689 532.366C619.852 532.365 620.009 532.427 620.128 532.539C620.248 532.651 620.32 532.804 620.33 532.967C620.33 533.049 620.313 533.131 620.28 533.207C620.248 533.282 620.2 533.35 620.14 533.407C620.08 533.463 620.009 533.507 619.931 533.534C619.854 533.562 619.771 533.574 619.689 533.568C619.53 533.568 619.377 533.505 619.264 533.392C619.152 533.279 619.088 533.126 619.088 532.967Z" fill="#E0FFFF"/>
<path opacity="0.34" d="M557.494 462.947C557.494 462.724 557.583 462.51 557.74 462.352C557.898 462.194 558.112 462.105 558.335 462.105C558.558 462.105 558.772 462.194 558.93 462.352C559.088 462.51 559.176 462.724 559.176 462.947C559.176 463.17 559.088 463.384 558.93 463.542C558.772 463.7 558.558 463.789 558.335 463.789C558.112 463.789 557.898 463.7 557.74 463.542C557.583 463.384 557.494 463.17 557.494 462.947Z" fill="#E0FFFF"/>
<path opacity="0.48" d="M505.391 480.622C505.391 480.559 505.417 480.497 505.462 480.452C505.507 480.407 505.568 480.382 505.632 480.382C505.695 480.382 505.756 480.407 505.802 480.452C505.847 480.497 505.872 480.559 505.872 480.622C505.872 480.686 505.847 480.747 505.802 480.792C505.756 480.838 505.695 480.863 505.632 480.863C505.599 480.871 505.564 480.87 505.531 480.86C505.499 480.851 505.469 480.833 505.445 480.809C505.421 480.785 505.403 480.755 505.394 480.723C505.385 480.69 505.384 480.656 505.391 480.622Z" fill="#E0FFFF"/>
<path opacity="0.32" d="M515.523 534.53C515.597 533.971 515.872 533.458 516.295 533.087C516.719 532.715 517.263 532.51 517.826 532.51C518.39 532.51 518.934 532.715 519.357 533.087C519.781 533.458 520.055 533.971 520.129 534.53C520.172 534.858 520.145 535.192 520.049 535.509C519.953 535.825 519.791 536.118 519.573 536.367C519.355 536.616 519.086 536.815 518.785 536.952C518.484 537.089 518.157 537.159 517.826 537.159C517.495 537.159 517.169 537.089 516.867 536.952C516.566 536.815 516.297 536.616 516.079 536.367C515.861 536.118 515.699 535.825 515.603 535.509C515.507 535.192 515.48 534.858 515.523 534.53Z" fill="#E0FFFF"/>
<path opacity="0.56" d="M479 518.498C479 518.339 479.063 518.186 479.175 518.073C479.288 517.96 479.441 517.897 479.6 517.897C479.763 517.896 479.921 517.958 480.04 518.07C480.159 518.182 480.231 518.335 480.241 518.498C480.241 518.668 480.173 518.831 480.053 518.951C479.933 519.072 479.77 519.139 479.6 519.139C479.437 519.129 479.284 519.057 479.173 518.938C479.061 518.819 478.999 518.661 479 518.498Z" fill="#E0FFFF"/>
<path opacity="0.43" d="M467.506 473.448C468.435 473.448 469.188 472.694 469.188 471.765C469.188 470.835 468.435 470.081 467.506 470.081C466.577 470.081 465.824 470.835 465.824 471.765C465.824 472.694 466.577 473.448 467.506 473.448Z" fill="#E0FFFF"/>
<path opacity="0.3" d="M656.333 492.286C656.333 492.072 656.396 491.862 656.515 491.684C656.634 491.506 656.803 491.368 657 491.286C657.198 491.204 657.415 491.183 657.625 491.224C657.835 491.266 658.028 491.369 658.179 491.52C658.33 491.672 658.433 491.865 658.475 492.075C658.516 492.284 658.495 492.502 658.413 492.7C658.331 492.898 658.193 493.067 658.015 493.185C657.837 493.304 657.628 493.368 657.414 493.368C657.127 493.368 656.852 493.254 656.65 493.051C656.447 492.848 656.333 492.573 656.333 492.286Z" fill="#E0FFFF"/>
<path opacity="0.23" d="M631.423 531.244C632.02 531.244 632.504 530.759 632.504 530.161C632.504 529.564 632.02 529.079 631.423 529.079C630.825 529.079 630.341 529.564 630.341 530.161C630.341 530.759 630.825 531.244 631.423 531.244Z" fill="#E0FFFF"/>
<path opacity="0.48" d="M687.411 507.877C688.472 507.877 689.333 507.015 689.333 505.953C689.333 504.89 688.472 504.029 687.411 504.029C686.349 504.029 685.488 504.89 685.488 505.953C685.488 507.015 686.349 507.877 687.411 507.877Z" fill="#E0FFFF"/>
<path opacity="0.49" d="M389.933 538.778C389.925 538.46 390.012 538.146 390.183 537.877C390.354 537.608 390.601 537.397 390.893 537.269C391.185 537.141 391.508 537.104 391.822 537.161C392.135 537.218 392.424 537.368 392.652 537.59C392.88 537.813 393.037 538.099 393.102 538.411C393.167 538.723 393.138 539.047 393.018 539.342C392.898 539.638 392.693 539.89 392.429 540.068C392.164 540.246 391.853 540.341 391.535 540.342C391.326 540.347 391.119 540.31 390.925 540.234C390.73 540.158 390.553 540.044 390.404 539.898C390.255 539.753 390.136 539.578 390.055 539.386C389.974 539.194 389.933 538.987 389.933 538.778Z" fill="#E0FFFF"/>
<path opacity="0.6" d="M392.976 458.298C392.976 458.108 393.032 457.922 393.138 457.763C393.244 457.605 393.394 457.482 393.569 457.409C393.745 457.336 393.938 457.317 394.125 457.354C394.311 457.391 394.482 457.483 394.617 457.618C394.751 457.752 394.843 457.923 394.88 458.11C394.917 458.297 394.898 458.49 394.825 458.666C394.753 458.842 394.629 458.992 394.471 459.098C394.313 459.203 394.127 459.26 393.937 459.26C393.682 459.26 393.438 459.158 393.258 458.978C393.077 458.798 392.976 458.553 392.976 458.298Z" fill="#E0FFFF"/>
<path opacity="0.47" d="M341.194 478.899C342.786 478.899 344.077 477.607 344.077 476.013C344.077 474.419 342.786 473.127 341.194 473.127C339.601 473.127 338.311 474.419 338.311 476.013C338.311 477.607 339.601 478.899 341.194 478.899Z" fill="#E0FFFF"/>
<path opacity="0.36" d="M350.885 529.921C350.885 529.247 351.15 528.601 351.622 528.121C352.094 527.641 352.735 527.366 353.408 527.356C354.088 527.356 354.74 527.626 355.221 528.107C355.701 528.588 355.971 529.241 355.971 529.921C355.961 530.594 355.686 531.236 355.207 531.709C354.727 532.181 354.081 532.446 353.408 532.446C352.739 532.446 352.097 532.18 351.624 531.706C351.151 531.233 350.885 530.591 350.885 529.921Z" fill="#E0FFFF"/>
<path opacity="0.56" d="M312.92 513.889C312.914 513.587 312.97 513.288 313.083 513.008C313.195 512.729 313.363 512.475 313.576 512.261C313.789 512.048 314.043 511.88 314.323 511.767C314.602 511.654 314.901 511.599 315.203 511.604C315.808 511.604 316.389 511.845 316.817 512.273C317.245 512.702 317.485 513.283 317.485 513.889C317.485 514.495 317.245 515.076 316.817 515.504C316.389 515.933 315.808 516.173 315.203 516.173C314.901 516.179 314.602 516.123 314.323 516.011C314.043 515.898 313.789 515.73 313.576 515.516C313.363 515.303 313.195 515.049 313.083 514.769C312.97 514.49 312.914 514.19 312.92 513.889Z" fill="#E0FFFF"/>
<path opacity="0.32" d="M371.19 493.087C373.07 493.087 374.594 491.562 374.594 489.68C374.594 487.799 373.07 486.274 371.19 486.274C369.31 486.274 367.786 487.799 367.786 489.68C367.786 491.562 369.31 493.087 371.19 493.087Z" fill="#E0FFFF"/>
<path opacity="0.22" d="M355.851 452.606C357.599 452.606 359.015 451.189 359.015 449.44C359.015 447.691 357.599 446.274 355.851 446.274C354.104 446.274 352.688 447.691 352.688 449.44C352.688 451.189 354.104 452.606 355.851 452.606Z" fill="#E0FFFF"/>
<path opacity="0.43" d="M300.945 466.955C300.945 466.381 301.173 465.83 301.579 465.425C301.984 465.019 302.534 464.791 303.108 464.791C303.682 464.791 304.232 465.019 304.637 465.425C305.043 465.83 305.271 466.381 305.271 466.955C305.271 467.529 305.043 468.08 304.637 468.485C304.232 468.891 303.682 469.119 303.108 469.119C302.534 469.119 301.984 468.891 301.579 468.485C301.173 468.08 300.945 467.529 300.945 466.955Z" fill="#E0FFFF"/>
<path opacity="0.64" d="M119.287 521.384C119.287 520.827 119.452 520.283 119.762 519.821C120.072 519.359 120.512 518.999 121.027 518.788C121.542 518.577 122.107 518.524 122.652 518.635C123.197 518.747 123.696 519.018 124.087 519.415C124.477 519.811 124.741 520.315 124.845 520.861C124.948 521.408 124.887 521.974 124.669 522.485C124.45 522.997 124.085 523.433 123.618 523.736C123.152 524.04 122.606 524.197 122.05 524.189C121.684 524.189 121.321 524.117 120.983 523.975C120.646 523.834 120.339 523.626 120.082 523.365C119.825 523.104 119.622 522.795 119.486 522.454C119.349 522.114 119.282 521.75 119.287 521.384Z" fill="#E0FFFF"/>
<path opacity="0.5" d="M249.604 388.919C249.614 388.178 249.913 387.471 250.437 386.947C250.96 386.423 251.667 386.124 252.407 386.114C253.144 386.124 253.847 386.424 254.364 386.949C254.881 387.474 255.171 388.182 255.171 388.919C255.171 389.653 254.88 390.356 254.361 390.875C253.843 391.393 253.14 391.685 252.407 391.685C251.671 391.685 250.964 391.395 250.439 390.877C249.915 390.36 249.615 389.656 249.604 388.919Z" fill="#E0FFFF"/>
<path opacity="0.6" d="M224.814 426.875C224.806 426.556 224.893 426.242 225.064 425.974C225.235 425.705 225.483 425.493 225.775 425.365C226.067 425.238 226.39 425.2 226.703 425.258C227.016 425.315 227.306 425.464 227.534 425.687C227.762 425.909 227.918 426.195 227.983 426.507C228.049 426.819 228.019 427.143 227.899 427.439C227.779 427.734 227.574 427.987 227.31 428.165C227.046 428.343 226.734 428.438 226.416 428.438C226.207 428.443 226 428.407 225.806 428.331C225.612 428.255 225.435 428.14 225.286 427.995C225.136 427.849 225.018 427.675 224.937 427.483C224.856 427.29 224.814 427.084 224.814 426.875Z" fill="#E0FFFF"/>
<path opacity="0.28" d="M213.44 380.061C213.412 379.933 213.413 379.8 213.444 379.671C213.474 379.543 213.533 379.424 213.615 379.321C213.698 379.219 213.802 379.136 213.921 379.079C214.04 379.022 214.169 378.993 214.301 378.993C214.433 378.993 214.562 379.022 214.681 379.079C214.8 379.136 214.904 379.219 214.987 379.321C215.069 379.424 215.128 379.543 215.158 379.671C215.189 379.8 215.19 379.933 215.162 380.061C215.119 380.258 215.011 380.435 214.854 380.561C214.697 380.687 214.502 380.756 214.301 380.756C214.1 380.756 213.905 380.687 213.748 380.561C213.591 380.435 213.483 380.258 213.44 380.061Z" fill="#E0FFFF"/>
<path opacity="0.45" d="M251.005 333.288C251.005 333.074 251.069 332.865 251.188 332.687C251.306 332.509 251.475 332.37 251.673 332.288C251.87 332.206 252.088 332.185 252.298 332.227C252.507 332.268 252.7 332.372 252.851 332.523C253.003 332.674 253.106 332.867 253.147 333.077C253.189 333.287 253.168 333.504 253.086 333.702C253.004 333.9 252.865 334.069 252.687 334.188C252.51 334.307 252.301 334.37 252.087 334.37C251.8 334.37 251.525 334.256 251.322 334.053C251.119 333.85 251.005 333.575 251.005 333.288Z" fill="#E0FFFF"/>
<path opacity="0.6" d="M227.417 506.955C228.346 506.955 229.099 506.201 229.099 505.272C229.099 504.342 228.346 503.588 227.417 503.588C226.488 503.588 225.735 504.342 225.735 505.272C225.735 506.201 226.488 506.955 227.417 506.955Z" fill="#E0FFFF"/>
<path opacity="0.27" d="M70.2679 424.51C71.1305 424.51 71.8298 423.81 71.8298 422.947C71.8298 422.084 71.1305 421.384 70.2679 421.384C69.4053 421.384 68.7061 422.084 68.7061 422.947C68.7061 423.81 69.4053 424.51 70.2679 424.51Z" fill="#E0FFFF"/>
<path opacity="0.43" d="M100.224 438.057C101.02 438.057 101.666 437.411 101.666 436.615C101.666 435.818 101.02 435.172 100.224 435.172C99.4277 435.172 98.7822 435.818 98.7822 436.615C98.7822 437.411 99.4277 438.057 100.224 438.057Z" fill="#E0FFFF"/>
<path opacity="0.41" d="M84.8859 399.18C86.412 399.18 87.6492 397.941 87.6492 396.414C87.6492 394.887 86.412 393.649 84.8859 393.649C83.3597 393.649 82.1226 394.887 82.1226 396.414C82.1226 397.941 83.3597 399.18 84.8859 399.18Z" fill="#E0FFFF"/>
<path opacity="0.56" d="M108.113 379.1C109.706 379.1 110.997 377.808 110.997 376.214C110.997 374.62 109.706 373.328 108.113 373.328C106.521 373.328 105.23 374.62 105.23 376.214C105.23 377.808 106.521 379.1 108.113 379.1Z" fill="#E0FFFF"/>
<path opacity="0.49" d="M29.3787 351.324C29.3708 350.837 29.5084 350.359 29.7737 349.951C30.0391 349.543 30.4202 349.223 30.8682 349.033C31.3162 348.843 31.8106 348.791 32.2882 348.885C32.7658 348.978 33.2047 349.211 33.5488 349.556C33.8928 349.9 34.1263 350.339 34.2193 350.817C34.3123 351.295 34.2605 351.79 34.0707 352.238C33.8808 352.687 33.5615 353.068 33.1537 353.334C32.7459 353.599 32.2681 353.737 31.7816 353.729C31.4661 353.729 31.1536 353.667 30.8621 353.546C30.5706 353.425 30.3057 353.248 30.0825 353.025C29.8594 352.801 29.6824 352.536 29.5617 352.244C29.4409 351.953 29.3787 351.64 29.3787 351.324Z" fill="#E0FFFF"/>
<path opacity="0.36" d="M76.3151 474.049C76.3229 473.79 76.4071 473.538 76.557 473.326C76.7069 473.114 76.916 472.95 77.158 472.856C77.4001 472.762 77.6645 472.742 77.9182 472.797C78.1718 472.853 78.4036 472.982 78.5844 473.168C78.7653 473.355 78.8872 473.59 78.9351 473.846C78.9829 474.101 78.9545 474.365 78.8534 474.604C78.7523 474.844 78.583 475.048 78.3666 475.192C78.1502 475.335 77.8963 475.412 77.6367 475.412C77.4597 475.412 77.2845 475.377 77.1215 475.308C76.9585 475.239 76.811 475.138 76.6877 475.011C76.5644 474.883 76.4679 474.733 76.4039 474.568C76.3399 474.403 76.3097 474.226 76.3151 474.049Z" fill="#E0FFFF"/>
<path opacity="0.22" d="M903.47 537.456C903.479 537.331 903.533 537.214 903.621 537.126C903.709 537.038 903.826 536.984 903.95 536.975C904.082 536.974 904.208 537.024 904.305 537.113C904.402 537.202 904.461 537.325 904.471 537.456C904.471 537.522 904.458 537.588 904.431 537.65C904.404 537.711 904.365 537.766 904.316 537.811C904.267 537.856 904.21 537.891 904.147 537.912C904.084 537.934 904.017 537.942 903.95 537.937C903.823 537.937 903.701 537.886 903.611 537.796C903.52 537.706 903.47 537.583 903.47 537.456Z" fill="#E0FFFF"/>
<path opacity="0.55" d="M904.792 457.015C904.755 456.786 904.769 456.552 904.832 456.329C904.894 456.105 905.005 455.898 905.155 455.722C905.306 455.546 905.492 455.404 905.703 455.307C905.913 455.21 906.142 455.159 906.374 455.159C906.606 455.159 906.835 455.21 907.045 455.307C907.255 455.404 907.442 455.546 907.593 455.722C907.743 455.898 907.853 456.105 907.916 456.329C907.979 456.552 907.992 456.786 907.956 457.015C907.896 457.392 907.703 457.735 907.414 457.982C907.124 458.23 906.755 458.366 906.374 458.366C905.993 458.366 905.624 458.23 905.334 457.982C905.044 457.735 904.852 457.392 904.792 457.015Z" fill="#E0FFFF"/>
<path opacity="0.59" d="M863.222 528.598C863.216 528.249 863.281 527.903 863.412 527.58C863.543 527.256 863.737 526.962 863.984 526.716C864.23 526.469 864.524 526.274 864.847 526.143C865.17 526.012 865.516 525.948 865.865 525.953C866.212 525.953 866.556 526.021 866.876 526.154C867.197 526.287 867.488 526.482 867.734 526.728C867.979 526.973 868.174 527.265 868.307 527.586C868.44 527.907 868.508 528.251 868.508 528.598C868.508 528.946 868.44 529.29 868.307 529.61C868.174 529.931 867.979 530.223 867.734 530.469C867.488 530.714 867.197 530.909 866.876 531.042C866.556 531.175 866.212 531.243 865.865 531.243C865.516 531.249 865.17 531.184 864.847 531.053C864.524 530.922 864.23 530.727 863.984 530.481C863.737 530.234 863.543 529.94 863.412 529.617C863.281 529.293 863.216 528.947 863.222 528.598Z" fill="#E0FFFF"/>
<path opacity="0.65" d="M882.565 488.358C882.565 488.144 882.628 487.935 882.747 487.757C882.866 487.579 883.035 487.44 883.232 487.358C883.43 487.276 883.647 487.255 883.857 487.297C884.067 487.338 884.26 487.441 884.411 487.593C884.562 487.744 884.665 487.937 884.707 488.147C884.749 488.357 884.727 488.574 884.645 488.772C884.563 488.97 884.425 489.139 884.247 489.258C884.069 489.377 883.86 489.44 883.646 489.44C883.504 489.44 883.364 489.412 883.232 489.358C883.101 489.303 882.982 489.224 882.882 489.123C882.781 489.023 882.702 488.903 882.647 488.772C882.593 488.641 882.565 488.5 882.565 488.358Z" fill="#E0FFFF"/>
<path opacity="0.27" d="M867.307 448.117C867.307 447.991 867.331 447.866 867.38 447.749C867.428 447.633 867.499 447.527 867.588 447.437C867.677 447.348 867.783 447.277 867.9 447.229C868.017 447.18 868.142 447.156 868.268 447.156C868.394 447.156 868.519 447.18 868.636 447.229C868.752 447.277 868.858 447.348 868.947 447.437C869.037 447.527 869.107 447.633 869.156 447.749C869.204 447.866 869.229 447.991 869.229 448.117C869.235 448.245 869.214 448.373 869.167 448.492C869.121 448.611 869.05 448.72 868.96 448.81C868.87 448.901 868.761 448.971 868.642 449.018C868.523 449.064 868.396 449.085 868.268 449.079C868.013 449.079 867.768 448.978 867.588 448.798C867.408 448.617 867.307 448.373 867.307 448.117Z" fill="#E0FFFF"/>
<path opacity="0.48" d="M814.243 465.833C814.237 465.658 814.268 465.483 814.332 465.32C814.397 465.157 814.494 465.009 814.618 464.885C814.741 464.761 814.889 464.664 815.052 464.6C815.215 464.535 815.389 464.505 815.564 464.51C815.915 464.51 816.251 464.65 816.499 464.898C816.747 465.146 816.886 465.482 816.886 465.833C816.886 466.184 816.747 466.52 816.499 466.768C816.251 467.016 815.915 467.155 815.564 467.155C815.214 467.155 814.878 467.016 814.63 466.768C814.382 466.52 814.243 466.184 814.243 465.833Z" fill="#E0FFFF"/>
<path opacity="0.27" d="M794.659 395.452C794.651 394.751 794.852 394.064 795.237 393.478C795.621 392.892 796.171 392.433 796.816 392.161C797.462 391.89 798.174 391.816 798.861 391.951C799.549 392.086 800.18 392.423 800.675 392.918C801.171 393.414 801.507 394.046 801.642 394.734C801.777 395.422 801.703 396.134 801.432 396.78C801.16 397.427 800.702 397.977 800.117 398.361C799.531 398.746 798.844 398.947 798.144 398.939C797.686 398.939 797.233 398.849 796.81 398.674C796.388 398.498 796.003 398.242 795.68 397.918C795.356 397.594 795.1 397.21 794.925 396.787C794.75 396.364 794.659 395.91 794.659 395.452Z" fill="#E0FFFF"/>
<path opacity="0.62" d="M798.504 314.971C798.496 314.558 798.611 314.151 798.835 313.803C799.059 313.455 799.381 313.181 799.761 313.018C800.141 312.854 800.561 312.807 800.968 312.882C801.374 312.958 801.749 313.154 802.044 313.443C802.339 313.733 802.542 314.104 802.625 314.51C802.709 314.915 802.67 315.336 802.514 315.719C802.358 316.103 802.091 316.43 801.747 316.661C801.404 316.892 801 317.015 800.586 317.015C800.041 317.016 799.517 316.802 799.128 316.419C798.738 316.037 798.514 315.517 798.504 314.971Z" fill="#E0FFFF"/>
<path opacity="0.36" d="M760.058 389.44C761.65 389.44 762.941 388.148 762.941 386.554C762.941 384.961 761.65 383.669 760.058 383.669C758.465 383.669 757.174 384.961 757.174 386.554C757.174 388.148 758.465 389.44 760.058 389.44Z" fill="#E0FFFF"/>
<path opacity="0.26" d="M775.637 346.314C775.637 345.902 775.759 345.499 775.988 345.156C776.216 344.813 776.542 344.546 776.922 344.389C777.303 344.231 777.721 344.19 778.125 344.27C778.529 344.35 778.9 344.549 779.192 344.84C779.483 345.132 779.681 345.503 779.762 345.907C779.842 346.312 779.801 346.731 779.643 347.112C779.485 347.492 779.219 347.818 778.876 348.047C778.534 348.276 778.131 348.398 777.719 348.398C777.444 348.404 777.171 348.354 776.916 348.251C776.661 348.148 776.429 347.995 776.234 347.8C776.04 347.605 775.887 347.373 775.784 347.118C775.681 346.863 775.631 346.589 775.637 346.314Z" fill="#E0FFFF"/>
<path opacity="0.63" d="M762.461 309.12C764.142 309.12 765.504 307.756 765.504 306.074C765.504 304.391 764.142 303.028 762.461 303.028C760.78 303.028 759.417 304.391 759.417 306.074C759.417 307.756 760.78 309.12 762.461 309.12Z" fill="#E0FFFF"/>
<path opacity="0.39" d="M966.145 366.755C966.205 366.378 966.397 366.035 966.687 365.788C966.977 365.54 967.346 365.404 967.727 365.404C968.108 365.404 968.477 365.54 968.767 365.788C969.057 366.035 969.249 366.378 969.309 366.755C969.345 366.984 969.332 367.218 969.269 367.441C969.206 367.665 969.096 367.872 968.946 368.048C968.795 368.224 968.608 368.366 968.398 368.463C968.188 368.56 967.959 368.611 967.727 368.611C967.495 368.611 967.266 368.56 967.056 368.463C966.845 368.366 966.659 368.224 966.508 368.048C966.358 367.872 966.247 367.665 966.185 367.441C966.122 367.218 966.109 366.984 966.145 366.755Z" fill="#E0FFFF"/>
<path opacity="0.25" d="M950.327 326.675C950.334 326.272 950.461 325.881 950.69 325.55C950.919 325.22 951.241 324.964 951.615 324.815C951.989 324.667 952.398 324.632 952.792 324.715C953.185 324.798 953.545 324.996 953.827 325.284C954.109 325.571 954.299 325.935 954.375 326.331C954.45 326.726 954.408 327.135 954.252 327.506C954.096 327.877 953.834 328.194 953.5 328.417C953.165 328.64 952.771 328.759 952.369 328.759C952.097 328.759 951.829 328.705 951.578 328.6C951.328 328.494 951.101 328.34 950.91 328.146C950.72 327.952 950.571 327.722 950.47 327.469C950.37 327.217 950.321 326.947 950.327 326.675Z" fill="#E0FFFF"/>
<path opacity="0.3" d="M896.142 344.31C896.142 343.611 896.349 342.927 896.738 342.346C897.128 341.766 897.68 341.314 898.327 341.048C898.973 340.782 899.684 340.715 900.368 340.854C901.053 340.993 901.681 341.333 902.172 341.831C902.663 342.328 902.996 342.96 903.127 343.647C903.259 344.334 903.183 345.044 902.91 345.688C902.637 346.331 902.179 346.88 901.595 347.262C901.01 347.645 900.325 347.845 899.626 347.837C898.698 347.827 897.812 347.45 897.16 346.79C896.507 346.13 896.142 345.239 896.142 344.31Z" fill="#E0FFFF"/>
<path opacity="0.37" d="M871.752 382.186C871.752 381.644 871.967 381.124 872.35 380.74C872.733 380.357 873.253 380.142 873.794 380.142C874.229 380.266 874.612 380.529 874.885 380.89C875.157 381.252 875.305 381.693 875.305 382.146C875.305 382.599 875.157 383.039 874.885 383.401C874.612 383.762 874.229 384.025 873.794 384.15C873.266 384.15 872.759 383.946 872.378 383.58C871.997 383.213 871.773 382.714 871.752 382.186Z" fill="#E0FFFF"/>
<path opacity="0.37" d="M929.622 360.903C931.236 360.903 932.545 359.593 932.545 357.977C932.545 356.361 931.236 355.051 929.622 355.051C928.007 355.051 926.698 356.361 926.698 357.977C926.698 359.593 928.007 360.903 929.622 360.903Z" fill="#E0FFFF"/>
<path opacity="0.2" d="M914.283 320.903C916.031 320.903 917.447 319.486 917.447 317.737C917.447 315.988 916.031 314.571 914.283 314.571C912.536 314.571 911.12 315.988 911.12 317.737C911.12 319.486 912.536 320.903 914.283 320.903Z" fill="#E0FFFF"/>
<path opacity="0.63" d="M597.822 301.464C597.822 301.417 597.836 301.37 597.863 301.331C597.889 301.291 597.927 301.26 597.971 301.242C598.015 301.224 598.063 301.219 598.109 301.228C598.156 301.238 598.199 301.261 598.232 301.294C598.266 301.328 598.289 301.371 598.298 301.417C598.307 301.464 598.303 301.512 598.285 301.556C598.266 301.6 598.236 301.638 598.196 301.664C598.157 301.691 598.11 301.705 598.063 301.705C597.999 301.705 597.938 301.679 597.893 301.634C597.848 301.589 597.822 301.528 597.822 301.464Z" fill="#E0FFFF"/>
<path opacity="0.56" d="M543.037 319.14C543.037 318.678 543.174 318.227 543.431 317.844C543.688 317.461 544.053 317.163 544.48 316.989C544.907 316.814 545.376 316.77 545.828 316.863C546.279 316.956 546.693 317.182 547.016 317.511C547.339 317.84 547.557 318.258 547.642 318.711C547.727 319.165 547.676 319.634 547.494 320.058C547.312 320.482 547.008 320.842 546.621 321.092C546.233 321.343 545.78 321.472 545.319 321.464C544.71 321.454 544.13 321.204 543.703 320.77C543.276 320.335 543.037 319.749 543.037 319.14Z" fill="#E0FFFF"/>
<path opacity="0.37" d="M250.245 370.763C250.245 370.691 250.266 370.622 250.305 370.562C250.345 370.503 250.401 370.457 250.467 370.43C250.533 370.402 250.605 370.395 250.675 370.409C250.745 370.423 250.81 370.457 250.86 370.508C250.91 370.558 250.945 370.622 250.959 370.692C250.973 370.762 250.965 370.835 250.938 370.901C250.911 370.967 250.865 371.023 250.805 371.063C250.746 371.102 250.676 371.124 250.605 371.124C250.509 371.124 250.418 371.086 250.35 371.018C250.283 370.95 250.245 370.859 250.245 370.763Z" fill="#E0FFFF"/>
<path opacity="0.6" d="M195.458 388.318C195.458 387.68 195.711 387.068 196.162 386.617C196.613 386.166 197.224 385.913 197.861 385.913C198.206 385.869 198.555 385.898 198.887 386C199.219 386.101 199.526 386.273 199.787 386.502C200.047 386.731 200.256 387.014 200.399 387.33C200.542 387.647 200.616 387.991 200.616 388.338C200.616 388.685 200.542 389.029 200.399 389.345C200.256 389.662 200.047 389.944 199.787 390.174C199.526 390.403 199.219 390.575 198.887 390.676C198.555 390.778 198.206 390.807 197.861 390.763C197.542 390.763 197.227 390.699 196.932 390.576C196.638 390.453 196.371 390.272 196.148 390.044C195.924 389.817 195.748 389.547 195.63 389.251C195.511 388.954 195.453 388.637 195.458 388.318Z" fill="#E0FFFF"/>
<path opacity="0.6" d="M212.479 364.671C214.072 364.671 215.363 363.379 215.363 361.785C215.363 360.191 214.072 358.899 212.479 358.899C210.887 358.899 209.596 360.191 209.596 361.785C209.596 363.379 210.887 364.671 212.479 364.671Z" fill="#E0FFFF"/>
<path opacity="0.45" d="M399.984 382.306C399.984 381.83 400.125 381.365 400.389 380.97C400.653 380.574 401.029 380.266 401.468 380.084C401.907 379.902 402.39 379.854 402.856 379.947C403.322 380.04 403.75 380.269 404.086 380.605C404.422 380.942 404.651 381.37 404.744 381.837C404.837 382.303 404.789 382.787 404.607 383.226C404.425 383.666 404.117 384.041 403.722 384.305C403.327 384.57 402.863 384.711 402.387 384.711C401.75 384.711 401.139 384.457 400.688 384.006C400.238 383.555 399.984 382.944 399.984 382.306Z" fill="#E0FFFF"/>
<path opacity="0.41" d="M504.43 294.851C504.386 294.507 504.415 294.157 504.517 293.824C504.618 293.492 504.789 293.185 505.019 292.924C505.248 292.663 505.53 292.454 505.846 292.311C506.163 292.168 506.506 292.094 506.853 292.094C507.2 292.094 507.543 292.168 507.86 292.311C508.176 292.454 508.458 292.663 508.688 292.924C508.917 293.185 509.088 293.492 509.189 293.824C509.291 294.157 509.32 294.507 509.276 294.851C509.2 295.441 508.912 295.982 508.466 296.375C508.02 296.767 507.447 296.984 506.853 296.984C506.259 296.984 505.686 296.767 505.24 296.375C504.794 295.982 504.506 295.441 504.43 294.851Z" fill="#E0FFFF"/>
<path opacity="0.6" d="M468.627 280.262C469.423 280.262 470.069 279.616 470.069 278.819C470.069 278.022 469.423 277.376 468.627 277.376C467.831 277.376 467.186 278.022 467.186 278.819C467.186 279.616 467.831 280.262 468.627 280.262Z" fill="#E0FFFF"/>
<path opacity="0.32" d="M443.637 397.937C445.163 397.937 446.4 396.699 446.4 395.172C446.4 393.644 445.163 392.406 443.637 392.406C442.111 392.406 440.874 393.644 440.874 395.172C440.874 396.699 442.111 397.937 443.637 397.937Z" fill="#E0FFFF"/>
<path opacity="0.21" d="M481.362 330.683C481.362 329.907 481.67 329.163 482.219 328.614C482.767 328.065 483.51 327.757 484.286 327.757C484.676 327.746 485.065 327.814 485.429 327.956C485.793 328.099 486.125 328.312 486.405 328.585C486.685 328.858 486.908 329.184 487.059 329.544C487.211 329.905 487.29 330.292 487.289 330.683C487.289 331.448 486.986 332.182 486.445 332.723C485.904 333.265 485.171 333.569 484.406 333.569C484.015 333.585 483.626 333.522 483.26 333.385C482.894 333.248 482.559 333.038 482.275 332.769C481.991 332.5 481.764 332.177 481.607 331.819C481.451 331.46 481.367 331.074 481.362 330.683Z" fill="#E0FFFF"/>
<path opacity="0.37" d="M429.62 348.398C429.62 348.008 429.736 347.627 429.954 347.303C430.171 346.979 430.48 346.728 430.841 346.58C431.202 346.433 431.599 346.396 431.98 346.475C432.362 346.555 432.712 346.746 432.984 347.024C433.257 347.303 433.441 347.657 433.512 348.04C433.583 348.424 433.538 348.82 433.384 349.178C433.229 349.536 432.971 349.84 432.643 350.051C432.315 350.262 431.932 350.37 431.542 350.362C431.029 350.352 430.54 350.14 430.181 349.773C429.821 349.406 429.62 348.912 429.62 348.398Z" fill="#E0FFFF"/>
<path opacity="0.27" d="M590.774 535.091C590.774 534.709 590.926 534.342 591.196 534.071C591.467 533.8 591.833 533.648 592.216 533.648C592.602 533.648 592.973 533.799 593.25 534.068C593.526 534.338 593.687 534.705 593.698 535.091C593.688 535.481 593.528 535.853 593.252 536.129C592.977 536.405 592.606 536.564 592.216 536.574C591.83 536.564 591.463 536.403 591.194 536.126C590.924 535.849 590.774 535.478 590.774 535.091Z" fill="#E0FFFF"/>
<path opacity="0.36" d="M551.367 526.233C551.367 525.468 551.67 524.734 552.211 524.193C552.752 523.652 553.485 523.348 554.25 523.348C555.019 523.348 555.756 523.65 556.303 524.19C556.85 524.73 557.163 525.464 557.174 526.233C557.174 527.009 556.866 527.754 556.317 528.302C555.769 528.851 555.026 529.159 554.25 529.159C553.482 529.149 552.748 528.836 552.209 528.288C551.669 527.741 551.367 527.003 551.367 526.233Z" fill="#E0FFFF"/>
<path opacity="0.6" d="M300.585 274.21C300.531 273.702 300.585 273.188 300.743 272.702C300.901 272.215 301.159 271.768 301.501 271.388C301.843 271.008 302.26 270.704 302.727 270.496C303.193 270.288 303.699 270.181 304.209 270.181C304.72 270.181 305.225 270.288 305.692 270.496C306.158 270.704 306.576 271.008 306.918 271.388C307.259 271.768 307.518 272.215 307.675 272.702C307.833 273.188 307.887 273.702 307.834 274.21C307.739 275.106 307.317 275.936 306.648 276.539C305.978 277.142 305.11 277.475 304.209 277.475C303.309 277.475 302.44 277.142 301.771 276.539C301.102 275.936 300.679 275.106 300.585 274.21Z" fill="#E0FFFF"/>
<path opacity="0.66" d="M355.131 334.971C355.123 334.415 355.28 333.869 355.584 333.402C355.887 332.935 356.322 332.569 356.833 332.351C357.345 332.132 357.91 332.071 358.456 332.175C359.002 332.279 359.506 332.543 359.902 332.933C360.298 333.324 360.569 333.824 360.68 334.369C360.792 334.914 360.739 335.481 360.528 335.996C360.317 336.511 359.957 336.951 359.496 337.261C359.034 337.571 358.49 337.737 357.934 337.737C357.197 337.737 356.49 337.447 355.966 336.929C355.441 336.412 355.141 335.709 355.131 334.971Z" fill="#E0FFFF"/>
<path opacity="0.43" d="M318.406 326.074C318.464 325.727 318.642 325.412 318.91 325.185C319.178 324.958 319.517 324.834 319.868 324.834C320.219 324.834 320.558 324.958 320.826 325.185C321.094 325.412 321.272 325.727 321.33 326.074C321.365 326.286 321.354 326.504 321.296 326.711C321.239 326.919 321.137 327.111 320.998 327.275C320.859 327.44 320.686 327.572 320.491 327.662C320.296 327.753 320.083 327.8 319.868 327.8C319.653 327.8 319.44 327.753 319.245 327.662C319.05 327.572 318.877 327.44 318.738 327.275C318.599 327.111 318.497 326.919 318.44 326.711C318.382 326.504 318.371 326.286 318.406 326.074Z" fill="#E0FFFF"/>
<path opacity="0.41" d="M265.583 343.789C265.583 343.48 265.675 343.178 265.846 342.921C266.018 342.664 266.262 342.463 266.547 342.345C266.833 342.227 267.147 342.196 267.45 342.256C267.753 342.316 268.031 342.465 268.249 342.684C268.468 342.902 268.617 343.181 268.677 343.484C268.737 343.787 268.706 344.102 268.588 344.387C268.47 344.673 268.27 344.917 268.013 345.089C267.756 345.261 267.454 345.352 267.145 345.352C266.938 345.358 266.733 345.321 266.541 345.244C266.349 345.168 266.174 345.053 266.028 344.907C265.882 344.76 265.767 344.586 265.691 344.394C265.614 344.202 265.578 343.996 265.583 343.789Z" fill="#E0FFFF"/>
<path opacity="0.56" d="M1093.82 326.675C1093.81 326.261 1093.93 325.854 1094.15 325.506C1094.37 325.158 1094.7 324.885 1095.08 324.721C1095.46 324.557 1095.88 324.51 1096.28 324.586C1096.69 324.662 1097.06 324.857 1097.36 325.147C1097.65 325.436 1097.86 325.808 1097.94 326.213C1098.02 326.618 1097.99 327.04 1097.83 327.423C1097.67 327.806 1097.41 328.134 1097.06 328.365C1096.72 328.595 1096.32 328.719 1095.9 328.719C1095.63 328.724 1095.36 328.675 1095.11 328.575C1094.86 328.475 1094.63 328.325 1094.43 328.134C1094.24 327.944 1094.08 327.717 1093.98 327.466C1093.87 327.216 1093.82 326.947 1093.82 326.675Z" fill="#E0FFFF"/>
<path opacity="0.33" d="M1068.79 364.591C1068.79 364.377 1068.85 364.167 1068.97 363.989C1069.09 363.811 1069.26 363.673 1069.46 363.591C1069.65 363.509 1069.87 363.487 1070.08 363.529C1070.29 363.571 1070.48 363.674 1070.63 363.825C1070.79 363.977 1070.89 364.17 1070.93 364.379C1070.97 364.589 1070.95 364.807 1070.87 365.005C1070.79 365.202 1070.65 365.371 1070.47 365.49C1070.29 365.609 1070.08 365.673 1069.87 365.673C1069.58 365.673 1069.31 365.559 1069.11 365.356C1068.9 365.153 1068.79 364.878 1068.79 364.591Z" fill="#E0FFFF"/>
<path opacity="0.63" d="M1071.11 508.879C1071.11 508.394 1071.26 507.919 1071.53 507.517C1071.8 507.114 1072.18 506.8 1072.63 506.617C1073.08 506.433 1073.57 506.387 1074.05 506.484C1074.52 506.582 1074.96 506.819 1075.3 507.165C1075.64 507.511 1075.87 507.95 1075.96 508.427C1076.05 508.904 1075.99 509.397 1075.8 509.843C1075.61 510.289 1075.29 510.668 1074.88 510.931C1074.48 511.195 1074 511.332 1073.51 511.324C1073.2 511.324 1072.88 511.26 1072.59 511.137C1072.29 511.014 1072.02 510.833 1071.8 510.605C1071.58 510.378 1071.4 510.108 1071.28 509.811C1071.16 509.515 1071.11 509.198 1071.11 508.879Z" fill="#E0FFFF"/>
<path opacity="0.44" d="M1054.53 468.639C1054.53 467.917 1054.75 467.212 1055.15 466.612C1055.55 466.012 1056.12 465.545 1056.78 465.269C1057.45 464.993 1058.18 464.921 1058.89 465.061C1059.59 465.202 1060.24 465.549 1060.75 466.059C1061.26 466.57 1061.61 467.219 1061.75 467.927C1061.89 468.634 1061.82 469.368 1061.54 470.034C1061.27 470.701 1060.8 471.27 1060.2 471.671C1059.6 472.072 1058.9 472.286 1058.18 472.286C1057.7 472.291 1057.22 472.201 1056.77 472.019C1056.33 471.838 1055.93 471.569 1055.59 471.23C1055.25 470.89 1054.98 470.486 1054.8 470.041C1054.62 469.596 1054.53 469.119 1054.53 468.639Z" fill="#E0FFFF"/>
<path opacity="0.65" d="M1005.43 488.398C1006.56 488.398 1007.47 487.483 1007.47 486.354C1007.47 485.225 1006.56 484.31 1005.43 484.31C1004.3 484.31 1003.39 485.225 1003.39 486.354C1003.39 487.483 1004.3 488.398 1005.43 488.398Z" fill="#E0FFFF"/>
<path opacity="0.31" d="M1017.65 542.786C1019.04 542.786 1020.17 541.656 1020.17 540.261C1020.17 538.867 1019.04 537.736 1017.65 537.736C1016.25 537.736 1015.12 538.867 1015.12 540.261C1015.12 541.656 1016.25 542.786 1017.65 542.786Z" fill="#E0FFFF"/>
<path opacity="0.56" d="M979.441 526.875C980.901 526.875 982.084 525.691 982.084 524.23C982.084 522.769 980.901 521.584 979.441 521.584C977.982 521.584 976.798 522.769 976.798 524.23C976.798 525.691 977.982 526.875 979.441 526.875Z" fill="#E0FFFF"/>
<path opacity="0.59" d="M1035.43 503.067C1037.11 503.067 1038.47 501.703 1038.47 500.021C1038.47 498.339 1037.11 496.975 1035.43 496.975C1033.75 496.975 1032.38 498.339 1032.38 500.021C1032.38 501.703 1033.75 503.067 1035.43 503.067Z" fill="#E0FFFF"/>
<path opacity="0.21" d="M967.347 480.141C968.807 480.141 969.99 478.957 969.99 477.496C969.99 476.035 968.807 474.851 967.347 474.851C965.887 474.851 964.704 476.035 964.704 477.496C964.704 478.957 965.887 480.141 967.347 480.141Z" fill="#E0FFFF"/>
</g>
</g>
<defs>
<filter id="filter0_f" x="-74.4048" y="269.181" width="1361.01" height="1182.74" filterUnits="userSpaceOnUse" color-interpolation-filters="sRGB">
<feFlood flood-opacity="0" result="BackgroundImageFix"/>
<feBlend mode="normal" in="SourceGraphic" in2="BackgroundImageFix" result="shape"/>
<feGaussianBlur stdDeviation="0.5" result="effect1_foregroundBlur"/>
</filter>
<clipPath id="clip0">
<rect width="1202" height="1044" fill="white"/>
</clipPath>
</defs>
</svg>
